<?xml version="1.0" encoding="UTF-8" standalone="no"?>
<!-- Created with Inkscape (http://www.inkscape.org/) -->

<svg
   xmlns:dc="http://purl.org/dc/elements/1.1/"
   xmlns:cc="http://creativecommons.org/ns#"
   xmlns:rdf="http://www.w3.org/1999/02/22-rdf-syntax-ns#"
   xmlns:svg="http://www.w3.org/2000/svg"
   xmlns="http://www.w3.org/2000/svg"
   xmlns:xlink="http://www.w3.org/1999/xlink"
   xmlns:sodipodi="http://sodipodi.sourceforge.net/DTD/sodipodi-0.dtd"
   xmlns:inkscape="http://www.inkscape.org/namespaces/inkscape"
   width="192"
   height="192"
   id="svg2"
   version="1.1"
   inkscape:version="0.92.2 5c3e80d, 2017-08-06"
   inkscape:export-filename="/disk/RPi_0215/srv/http/garage/launcher-icon-3x.png"
   inkscape:export-xdpi="405"
   inkscape:export-ydpi="405"
   sodipodi:docname="logo.svg">
  <defs
     id="defs4">
    <linearGradient
       id="linearGradient871">
      <stop
         style="stop-color:#ffffff;stop-opacity:0.00000000;"
         offset="0.00000000"
         id="stop872" />
      <stop
         style="stop-color:#ffffff;stop-opacity:0.00000000;"
         offset="0.25000000"
         id="stop873" />
      <stop
         style="stop-color:#ffffff;stop-opacity:1.0000000;"
         offset="1.0000000"
         id="stop875" />
    </linearGradient>
    <linearGradient
       id="linearGradient863">
      <stop
         style="stop-color:#3d3d3d;stop-opacity:0.00000000;"
         offset="0.00000000"
         id="stop864" />
      <stop
         style="stop-color:#626262;stop-opacity:1.0000000;"
         offset="0.25000000"
         id="stop867" />
      <stop
         style="stop-color:#575757;stop-opacity:1.0000000;"
         offset="0.67310077"
         id="stop866" />
      <stop
         style="stop-color:#222222;stop-opacity:1.0000000;"
         offset="1.0000000"
         id="stop865" />
    </linearGradient>
    <linearGradient
       id="linearGradient849">
      <stop
         style="stop-color:#000000;stop-opacity:0.00000000;"
         offset="0.00000000"
         id="stop850" />
      <stop
         style="stop-color:#000000;stop-opacity:0.68750000;"
         offset="1.0000000"
         id="stop851" />
    </linearGradient>
    <linearGradient
       id="linearGradient843">
      <stop
         style="stop-color:#ffffff;stop-opacity:0.00000000;"
         offset="0.00000000"
         id="stop844" />
      <stop
         style="stop-color:#ffffff;stop-opacity:0.62500000;"
         offset="1.0000000"
         id="stop845" />
    </linearGradient>
    <linearGradient
       id="linearGradient838">
      <stop
         style="stop-color:#000000;stop-opacity:1.0000000;"
         offset="0.00000000"
         id="stop839" />
      <stop
         style="stop-color:#656565;stop-opacity:1.0000000;"
         offset="0.29868218"
         id="stop868" />
      <stop
         style="stop-color:#000000;stop-opacity:1.0000000;"
         offset="1.0000000"
         id="stop840" />
    </linearGradient>
    <linearGradient
       y2="285.71638"
       y1="-42.001188"
       xlink:href="#linearGradient838"
       x2="73.763006"
       x1="59.754773"
       id="linearGradient841"
       gradientTransform="matrix(0.89275487,0.55644695,-0.33964659,0.54492372,69.028975,850.91762)"
       gradientUnits="userSpaceOnUse" />
    <linearGradient
       y2="157.71582"
       y1="175.91933"
       xlink:href="#linearGradient843"
       x2="-62.600244"
       x1="45.620881"
       id="linearGradient842"
       gradientTransform="matrix(1.2877399,0.80263798,-0.23546768,0.3777807,69.028975,850.91762)"
       gradientUnits="userSpaceOnUse" />
    <linearGradient
       y2="117.69579"
       y1="55.661336"
       xlink:href="#linearGradient843"
       x2="105.9315"
       x1="21.579629"
       id="linearGradient846"
       gradientTransform="matrix(0.79865674,0.49779634,-0.37966392,0.6091269,69.028975,850.91762)"
       gradientUnits="userSpaceOnUse" />
    <linearGradient
       y2="58.473469"
       y1="55.991254"
       xlink:href="#linearGradient849"
       x2="6.6167291"
       x1="4.3352042"
       id="linearGradient848"
       gradientTransform="matrix(0.67291543,0.41942279,-0.45060811,0.72294866,69.028975,850.91762)"
       gradientUnits="userSpaceOnUse" />
    <linearGradient
       y2="62.753026"
       y1="53.410857"
       xlink:href="#linearGradient843"
       x2="-3.1220761"
       x1="14.340255"
       id="linearGradient852"
       gradientTransform="matrix(0.6593435,0.41096352,-0.45988342,0.73782982,69.028975,850.91762)"
       gradientUnits="userSpaceOnUse" />
    <linearGradient
       y2="122.25315"
       y1="90.654838"
       xlink:href="#linearGradient843"
       x2="-5.8153644"
       x1="-3.0423021"
       id="linearGradient853"
       gradientTransform="matrix(0.68840534,0.42907753,-0.44046889,0.70668146,69.028975,850.91762)"
       gradientUnits="userSpaceOnUse" />
    <linearGradient
       y2="133.70347"
       y1="88.203247"
       xlink:href="#linearGradient843"
       x2="-29.788541"
       x1="-10.310557"
       id="linearGradient854"
       gradientTransform="matrix(0.67883762,0.42311405,-0.44667696,0.7166416,69.028975,850.91762)"
       gradientUnits="userSpaceOnUse" />
    <linearGradient
       y2="79.115537"
       y1="71.331644"
       xlink:href="#linearGradient843"
       x2="9.1930194"
       x1="18.03383"
       id="linearGradient856"
       gradientTransform="matrix(0.65630744,0.40907117,-0.4620108,0.74124296,69.028975,850.91762)"
       gradientUnits="userSpaceOnUse" />
    <linearGradient
       xlink:href="#linearGradient849"
       id="linearGradient858"
       gradientTransform="matrix(0.64306698,0.4008185,-0.47152343,0.75650488,69.028975,850.91762)"
       x1="10.113566"
       y1="66.612052"
       x2="17.602586"
       y2="66.612052"
       gradientUnits="userSpaceOnUse" />
    <linearGradient
       y2="-19.962604"
       y1="23.057989"
       xlink:href="#linearGradient871"
       x2="86.036767"
       x1="70.492431"
       id="linearGradient859"
       gradientTransform="matrix(0.6038635,0.37638328,-0.50213522,0.80561797,69.028975,850.91762)"
       gradientUnits="userSpaceOnUse" />
    <linearGradient
       y2="134.58373"
       y1="134.58373"
       xlink:href="#linearGradient843"
       x2="168.17224"
       x1="149.60842"
       id="linearGradient860"
       gradientTransform="matrix(0.92656071,0.57751786,-0.32725446,0.52504199,69.028975,850.91762)"
       gradientUnits="userSpaceOnUse" />
    <linearGradient
       y2="133.71698"
       y1="120.86608"
       xlink:href="#linearGradient863"
       x2="50.11684"
       x1="27.840088"
       id="linearGradient862"
       gradientTransform="matrix(1.185136,0.73868576,-0.25585345,0.41048731,69.028975,850.91762)"
       gradientUnits="userSpaceOnUse" />
    <linearGradient
       y2="35.042331"
       y1="61.419954"
       xlink:href="#linearGradient871"
       x2="115.2844"
       x1="85.117318"
       id="linearGradient870"
       gradientTransform="matrix(0.89925813,0.56050039,-0.33719032,0.54098293,69.028975,850.91762)"
       gradientUnits="userSpaceOnUse" />
    <linearGradient
       y2="0.78440368"
       y1="0.78440368"
       xlink:href="#linearGradient843"
       x2="-0.13732395"
       x1="0.088028170"
       id="linearGradient877" />
  </defs>
  <sodipodi:namedview
     id="base"
     pagecolor="#ffffff"
     bordercolor="#666666"
     borderopacity="1.0"
     inkscape:pageopacity="0.0"
     inkscape:pageshadow="2"
     inkscape:zoom="1.45"
     inkscape:cx="105.06481"
     inkscape:cy="227.5251"
     inkscape:document-units="px"
     inkscape:current-layer="layer1"
     showgrid="false"
     inkscape:window-width="1973"
     inkscape:window-height="1289"
     inkscape:window-x="1672"
     inkscape:window-y="553"
     inkscape:window-maximized="0" />
  <metadata
     id="metadata7">
    <rdf:RDF>
      <cc:Work
         rdf:about="">
        <dc:format>image/svg+xml</dc:format>
        <dc:type
           rdf:resource="http://purl.org/dc/dcmitype/StillImage" />
        <dc:title />
      </cc:Work>
    </rdf:RDF>
  </metadata>
  <g
     inkscape:label="Layer 1"
     inkscape:groupmode="layer"
     id="layer1"
     transform="translate(0,-860.3622)">
    <rect
       style="fill:#44eb47;fill-opacity:1;stroke:none"
       id="rect3777"
       width="192"
       height="192"
       x="0"
       y="860.36218" />
    <flowRoot
       xml:space="preserve"
       id="flowRoot2993"
       style="font-style:normal;font-variant:normal;font-weight:normal;font-stretch:normal;line-height:0.01%;font-family:'Noto Serif';-inkscape-font-specification:'Noto Serif';letter-spacing:0px;word-spacing:0px;fill:#000000;fill-opacity:1;stroke:none;stroke-width:1px;stroke-linecap:butt;stroke-linejoin:miter;stroke-opacity:1"><flowRegion
         id="flowRegion2995"><rect
           id="rect2997"
           width="45.590996"
           height="50.469044"
           x="-2.0637898"
           y="-7.5872421"
           style="font-style:normal;font-variant:normal;font-weight:normal;font-stretch:normal;font-family:'Noto Serif';-inkscape-font-specification:'Noto Serif'" /></flowRegion><flowPara
         id="flowPara2999"
         style="font-size:40px;line-height:1.25"> </flowPara></flowRoot>    <flowRoot
       xml:space="preserve"
       id="flowRoot3349"
       style="font-style:normal;font-weight:normal;line-height:0.01%;font-family:sans-serif;letter-spacing:0px;word-spacing:0px;fill:#000000;fill-opacity:1;stroke:none;stroke-width:1px;stroke-linecap:butt;stroke-linejoin:miter;stroke-opacity:1"
       transform="translate(0,1020.3622)"><flowRegion
         id="flowRegion3351"><rect
           id="rect3353"
           width="43.339588"
           height="42.964352"
           x="-4.1275797"
           y="-9.0881805" /></flowRegion><flowPara
         id="flowPara3355"
         style="font-size:40px;line-height:1.25"> </flowPara></flowRoot>    <path
       id="path4554"
       d="m 172.0269,897.4232 c 0.15669,0.15219 0.31369,0.30502 0.47038,0.45753 0.0164,-0.47326 0.28736,-1.07463 -0.24819,-1.37259 -0.31498,-0.1753 -0.7054,-0.0713 -0.97992,0.13068 0.26938,0.24626 0.51147,0.51564 0.75773,0.78438 m 7.26299,14.75521 c -0.0848,-1.24672 -0.18205,-2.35731 -0.88841,-3.41749 -0.6338,-0.95102 -1.46056,-1.80315 -2.46873,-2.35892 -1.03192,-0.5683 -1.99161,-0.64215 -2.50854,-1.73861 -0.11205,-0.23727 -0.33488,-0.2498 -0.24787,-0.55514 0.0771,-0.2697 0.45304,-0.21768 0.62674,-0.0979 0.005,-0.36185 0.10049,-1.48336 -0.18269,-1.60761 0.22475,-0.48386 -0.13196,-1.54019 -0.14352,-2.13032 -0.2392,0.14127 -0.47583,0.28736 -0.70508,0.44404 0.21191,-0.34066 0.42542,-0.68003 0.6399,-1.01908 -0.39139,-0.0835 -0.60683,-0.43602 -0.50954,-0.82323 -1.11412,-0.0267 -2.42217,-1.96144 -3.05693,-2.74453 -0.0469,0.67875 -0.72788,0.0446 -0.90125,-0.18333 -0.24241,-0.31787 -0.43345,-0.78406 -0.66655,-1.01909 -0.38176,-0.38496 -0.87107,-0.70026 -1.31223,-1.01298 -0.87684,-0.62064 -1.79704,-1.19471 -2.77599,-1.64004 -0.78374,-0.35639 -1.5023,-0.89901 -2.28604,-1.31993 0.17049,0.34001 0.30438,0.68099 0.4707,1.01908 -0.26264,-0.20548 -1.46442,-1.37066 -1.77072,-1.28718 -0.64728,0.17659 0.14352,0.86947 0.32043,1.06564 -0.26681,-0.1265 -2.41061,-1.00303 -1.26695,-0.20934 -0.34676,-0.12072 -1.09101,-0.68838 -1.11059,0 -0.6399,-0.17883 -1.59734,-0.23727 -2.08986,-0.54903 -0.35286,-0.2225 -0.90736,-0.78727 -1.33246,-0.77122 0.079,0.20581 0.2437,0.43506 0.3397,0.65371 -1.1671,-0.46074 -2.33645,-0.21352 -3.54272,-0.17338 -0.43344,0.0145 -0.87524,-0.0649 -1.30355,-0.0289 -0.34997,0.0289 -0.55449,0.33488 -0.86015,0.32782 -2.7699,-0.0694 -5.15515,0.60811 -7.82679,1.14237 -5.22418,1.04445 -9.51017,3.94631 -12.93184,7.98572 -1.79448,2.11812 -3.31315,4.46323 -4.96379,6.69404 -1.34818,1.82273 -2.37818,3.8715 -4.10202,5.3693 -1.85612,1.61339 -4.35471,2.79879 -6.59323,3.80664 -1.07656,0.4845 -2.1743,1.07816 -3.3475,1.29039 -1.22265,0.2209 -2.45974,-0.0267 -3.69009,0.10178 -1.24865,0.13004 -2.76347,-0.61614 -3.96107,-0.97767 -1.34241,-0.40487 -2.704719,-0.74938 -4.062856,-1.09614 -2.579498,-0.65852 -5.206514,-1.15104 -7.840273,-1.53216 -2.903139,-0.41996 -5.804351,-0.84859 -8.711022,-1.24126 -2.763472,-0.37373 -5.559694,-0.60811 -8.26441,-1.31191 -5.101844,-1.32924 -7.441179,-6.61794 -11.456835,-9.53842 -2.23017,-1.62238 -4.652342,-2.6922 -7.412283,-2.96928 -0.654988,-0.0655 -1.302591,-0.079 -1.959185,-0.0392 -0.515321,0.0305 -0.975097,-0.87717 -1.365201,-1.26792 -0.950054,-0.95037 -1.985834,-1.77489 -3.138485,-2.4668 -0.455602,-0.27387 -0.821625,-0.62641 -1.361669,-0.76126 -0.736862,-0.18462 -1.127607,0.0764 -1.691732,-0.47069 -0.988582,-0.95969 -1.996108,-1.8969 -3.014872,-2.8248 -2.006062,-1.82755 -3.956578,-3.40305 -6.670926,-3.98869 -0.651135,-0.13999 -1.311582,-0.25364 -1.979734,-0.26617 -0.576325,-0.0109 -1.040275,-0.22956 -1.613069,-0.25364 -0.594947,-0.0247 -0.872996,0.42285 -1.351394,0.51114 -0.771859,0.14384 -1.543076,0.28608 -2.312045,0.44501 -2.639859,0.54486 -3.698114,2.97506 -3.803426,5.50672 -0.08573,2.05326 -0.357996,3.989 -0.313688,6.08047 0.0472,2.21572 0.477756,4.38971 1.066603,6.51874 -2.278973,0.26488 -2.503082,3.7238 -1.68531,5.29288 -1.121507,0.38946 -1.807639,1.53505 -1.907171,2.67967 -0.04078,0.46941 0.0026,0.97639 0.195854,1.41144 0.214155,0.48161 0.680674,0.76993 0.653383,1.1504 -0.0305,0.42414 -0.347722,0.97863 -0.378866,1.48978 -0.03821,0.62641 -0.02183,1.27177 0.06518,1.89497 0.156362,1.11733 0.573435,2.22792 1.136276,3.20174 -0.962576,0.15411 -2.295027,0.28704 -2.455564,1.47693 -0.143198,1.06211 0.310799,2.26131 0.228604,3.37223 -0.167921,2.26902 1.259247,4.67578 3.167382,5.84191 0.160215,0.0979 0.695764,0.25172 0.783738,0.39235 0.07706,0.12265 -0.0074,0.70412 0,0.86273 0.02729,0.58884 0.08765,1.19567 0.203239,1.77456 0.21865,1.09422 0.578252,2.14605 1.1077,3.1295 1.111554,2.06546 2.889975,3.54914 4.896358,4.70114 0.06871,0.0395 0.13774,0.0787 0.20645,0.11848 -0.668794,0.79819 -0.876528,1.89465 -1.001426,2.89287 -0.165994,1.32859 -0.369233,2.61898 -0.160857,3.95593 0.403267,2.58817 2.126464,4.27251 4.310721,5.52791 -0.213834,0.25236 -0.497341,0.46042 -0.704433,0.72209 -0.170811,0.21608 -0.615175,0.4129 -0.719203,0.62481 -0.04238,0.0854 0.186864,0.20902 0.137098,0.3657 -0.274196,0.86208 -0.06165,1.05119 0.515643,1.6988 -0.541971,0.30084 -1.398272,1.45927 -0.169848,1.34657 -0.128429,0.55225 -1.329883,0.47551 -1.201775,1.24127 0.129072,0.77186 1.082978,0.25236 1.528306,0.0655 -0.401019,0.54004 -1.719344,0.57344 -1.959506,1.20242 -0.330063,0.86529 0.672968,0.75066 1.149761,0.57536 0.202276,0.51596 -1.38286,0.73686 -1.606647,1.26792 -0.122329,0.29057 -0.0067,0.53201 0.228603,0.67328 0.3413,0.20453 0.581463,-0.0488 0.920837,-0.21576 -0.277086,0.40841 -0.735899,0.86786 -0.868502,1.34594 -0.03917,0.14031 0.01413,0.23406 -0.0067,0.35286 -0.04624,0.26328 -0.06357,0.49574 -0.169848,0.83607 0.288644,-0.24177 0.582105,-0.37726 0.809745,0 -0.402946,0.25814 -1.474365,1.71228 -0.300524,1.41176 -0.419963,0.62962 -0.313688,1.18026 0.444044,1.28044 0.319788,0.0424 0.62256,-0.15861 0.875565,-0.0392 0.277728,0.13099 0.400056,0.56123 0.522385,0.79754 0.406478,0.78438 0.866575,1.49138 1.447074,2.15825 0.288324,0.33135 0.627376,0.63059 0.963218,0.91313 0.483536,0.40712 0.345796,0.42221 0.228604,1.01973 -0.126502,0.64535 -0.217687,1.70586 0.14352,2.29342 0.17081,0.27773 0.514037,0.43602 0.816166,0.52945 0.427669,0.13132 0.488031,0.16503 0.757732,0.54197 0.208697,0.29217 -0.04206,0.74457 0.241446,1.065 0.245942,0.27805 0.582105,0.23791 0.901251,0.27483 0.575683,0.0665 1.240946,0.15219 1.829151,-0.0655 -0.603938,0.48578 -1.731545,1.19503 -1.68531,2.11747 0.03885,0.77122 1.157146,0.79177 1.802502,0.57504 0,0.74328 0.289928,1.07527 1.097105,0.9279 0.379508,-0.0693 0.52399,-0.34901 0.836073,-0.48386 0.410973,-0.17755 0.168242,-0.0581 0.627055,0 0.851163,0.10788 1.314471,0.29957 1.631691,1.25155 0.288323,0.86593 0.09921,1.71356 0.144162,2.6238 0.02954,0.60137 -0.426706,3.47369 0.771537,3.11055 0.394598,-0.11976 0.756126,-0.43762 1.149761,-0.43762 0.471335,0 0.9218,-0.2209 1.345295,-0.41836 -0.674253,0.55225 -0.496379,2.95419 0.614212,2.77054 0.142877,-0.0238 0.551281,-0.38015 0.639897,-0.31337 0.158289,0.11816 0.3291,0.19843 0.529128,0.17659 0.366986,-0.0411 0.646319,-0.33391 1.025185,-0.37244 -0.0777,0.47197 0.224109,0.66976 0.633797,0.68581 0.563162,0.0231 1.056008,0.28254 1.391208,0.73879 0.295387,0.40326 0.372123,0.9279 0.671363,1.33245 0.453997,0.61421 1.043486,1.11444 1.668615,1.55014 0.627375,0.4373 1.270163,0.79048 1.96368,1.10995 0.439227,0.20195 0.136135,1.18475 0.424779,1.66604 0.667831,1.1132 1.955974,0.4973 2.351536,-0.40551 0.779243,1.17641 1.309655,2.14441 2.886764,1.32021 0.429595,1.2474 1.862863,1.8985 2.651739,2.9147 0.431522,0.5561 0.902214,0.9751 1.579998,1.1951 0.530091,0.1714 1.396987,-0.1628 1.702006,0.2327 0.71535,0.9266 1.434553,2.2186 2.76572,2.1926 1.039312,-0.02 1.244799,-0.9103 1.267274,-1.8169 0.53876,0.555 0.854695,0.8093 1.018763,1.5555 0.150583,0.6849 0.372445,1.3495 0.528807,2.0305 0.30245,1.3212 0.456565,2.61 0.504405,3.9626 0.08926,2.5262 0.159573,4.9834 -0.418679,7.4557 -0.158931,0.6794 -0.02055,2.5618 -0.522385,3.0319 -0.229567,0.2148 -1.355568,0.2722 -1.698474,0.3795 -0.675537,0.2116 -1.308371,0.5089 -1.937031,0.8303 -0.584674,0.2992 -1.979092,1.4146 -1.22425,2.2144 0.602653,0.6383 1.668935,-0.1146 2.26003,-0.2742 0.47005,-0.1271 0.969318,0.055 1.462807,0.066 0.541007,0.011 1.0178,-0.261 1.306124,0.2286 0.613569,1.0419 1.799291,1.126 2.899928,1.2352 0.895792,0.089 1.916482,0.7494 2.704073,1.2416 1.021975,0.6386 2.498267,0.5705 3.666008,0.6405 1.391529,0.083 2.780489,0.1265 4.174586,0.1426 0.621918,0.01 1.24512,-0.013 1.867038,-0.02 0.61068,-0.01 0.868501,0.4242 1.405014,0.6926 0.448859,0.2244 0.927257,0.3358 1.42781,0.3679 0.44019,0.029 1.078161,0.4999 1.508399,0.7051 0.535549,0.2565 1.066924,0.6113 1.456706,1.065 0.323321,0.3766 0.428632,0.9202 0.783418,1.2548 1.249935,1.1773 1.570687,-0.5947 1.755946,-1.5017 0.265527,-1.2987 -0.983446,-2.2719 -1.925794,-3.0206 1.518674,0.053 3.114405,-0.4794 4.598407,-0.1892 0.934,0.1824 1.67535,0.5921 2.41318,1.1829 0.21319,0.1708 0.55834,0.3271 0.73493,0.523 0.22058,0.244 0.14063,0.6283 0.3397,0.8756 0.85212,1.0595 1.32891,-0.8255 1.28011,-1.3723 -0.12297,-1.3809 -1.81277,-2.4636 -2.9651,-3.0974 1.52028,0.3532 3.29548,0.7269 4.62376,1.5935 1.06243,0.6926 1.57197,1.8959 2.31205,2.759 0.8823,1.0287 1.41368,0.014 1.51578,-1.0326 0.15572,-1.5989 -0.4784,-2.9163 -1.75049,-3.8294 0.76704,-0.218 0.26232,-1.5087 -0.0247,-1.9306 -0.63861,-0.9379 -1.82626,-1.536 -2.92754,-1.7293 0.91698,-0.3555 1.96528,-0.1959 2.76925,0.3403 0.45079,0.3005 0.50408,0.5169 0.64022,0.9931 0.0944,0.331 0.33391,0.8627 0.67939,1.0065 0.52206,0.2184 1.20017,-0.262 1.39763,-0.7317 0.29538,-0.7031 -0.1143,-1.5861 -0.48322,-2.183 -2.62477,-4.2429 -9.27578,-1.6121 -13.092372,-1.3131 -1.149761,0.09 -2.293742,0.1364 -3.447678,0.1133 -1.097105,-0.022 -1.630406,0.045 -1.630406,-1.1456 0,-0.9215 0.170489,-1.8568 0.0915,-2.7773 -0.09247,-1.0711 -0.431842,-2.198 -0.736861,-3.2251 -0.635403,-2.1416 -1.061467,-4.3358 -1.30484,-6.5557 -0.05233,-0.4781 -0.104348,-0.9607 -0.121365,-1.4416 -0.0061,-0.1689 -0.125861,-0.7427 -0.03147,-0.8801 0.108843,-0.1582 0.481609,0.098 0.568298,-0.1633 0.124255,-0.3744 -0.186864,-0.7594 -0.351895,-1.0901 -0.259748,-0.5198 -0.184296,-1.0094 -0.124576,-1.5829 0.342263,0.4434 0.822267,0.5375 1.105132,1.0223 0.17659,0.3025 0.362491,0.9173 0.736219,0.7292 -0.609075,-0.9838 -0.730761,-1.7104 -1.202096,-2.7445 0.192323,0.2032 0.297313,0.4148 0.53587,0.575 -0.351253,-0.5294 -0.453996,-1.1038 -0.828688,-1.6843 -0.204523,-0.3169 -0.572794,-1.26827 -0.412578,-1.60925 0.65563,1.20855 1.432947,2.35765 2.032711,3.59345 0.234704,0.4832 0.488351,0.7674 0.920194,1.0724 0.26039,0.1836 0.52977,0.4565 0.822588,0.5882 -0.175627,-0.3365 -0.333274,-0.5593 -0.182691,-0.9279 0.169206,0.082 0.512432,0.1072 0.634119,0.2286 0.134208,0.1348 0.411615,0.6325 0.581141,0.6601 0.458492,0.075 -0.220577,-0.6354 -0.270022,-0.7031 -0.616138,-0.8406 -1.032248,-2.1737 -1.545643,-3.1523 0.204523,0.2498 0.442759,0.4623 0.692874,0.6665 6.43e-4,-0.059 0.035,-0.082 0.06486,-0.1175 -0.96996,-0.95807 -1.447395,-2.80167 -1.841673,-4.05161 0.9995,1.42492 2.095642,2.97956 3.291958,4.16911 0.401662,0.3994 1.631691,0.8236 0.986335,-0.1374 -0.628018,-0.93496 -1.182831,-1.9046 -1.691731,-2.90795 0.779885,1.07752 1.557844,2.95005 3.082939,2.77085 -0.241125,-0.2074 -0.394919,-0.5179 -0.209018,-0.8107 0.158931,0.13388 1.666365,1.0868 1.430055,0.6145 -0.10081,-0.2019 0.0501,-0.2896 -0.0841,-0.50534 -0.24176,-0.38914 -0.479359,-0.77089 -0.784378,-1.1154 0.663018,0.54678 1.402448,0.99725 2.025008,1.57484 0.2209,0.2052 0.42413,0.5018 0.65306,0.2161 0.12104,-0.1522 -0.42093,-0.67265 -0.53555,-0.81071 0.0915,0.0652 0.18269,0.131 0.2742,0.19618 -0.32621,-0.54422 -0.81071,-0.95905 -1.14977,-1.47694 -0.29089,-0.4434 -0.47133,-0.93946 -0.836711,-1.36327 -0.328136,-0.38112 -0.03018,-0.68742 0.190721,-0.99565 0.14673,-0.20613 1.1565,0.13132 1.41304,0.15251 1.30516,0.10916 2.33869,-0.6033 3.52827,-0.99115 1.26534,-0.41258 2.54097,-0.80011 3.7909,-1.25925 2.53294,-0.92982 5.13074,-1.92387 7.56929,-3.07138 0.96803,-0.4556 1.74182,-1.12664 2.65206,-1.64678 0.95166,-0.54358 1.484,-1.59894 2.6466,-1.69591 4.79554,-0.39941 9.95903,-2.23402 13.79135,-5.18275 3.86797,-2.97538 6.61892,-7.11048 8.38803,-11.64755 1.95148,-5.00553 3.50996,-10.19534 5.95204,-15.00052 1.19728,-2.35506 2.42763,-4.54157 4.1168,-6.58584 1.58192,-1.91391 2.92657,-3.55716 3.81016,-5.91833 0.83544,-2.23306 0.65563,-4.53836 0.82998,-6.86293 0.19392,-2.58528 -0.0536,-5.23766 0.28061,-7.8056 0.17338,-1.32956 0.35768,-2.70054 0.77475,-3.98001 0.43634,-1.33791 1.05408,-2.58913 1.51739,-3.9097 0.34483,-0.98409 0.38015,-1.92323 0.18976,-2.94103 -0.0331,-0.17338 0.75484,-1.09261 0.94684,-1.21558 0.34836,-0.2225 0.81809,-0.087 1.26695,-0.12393 1.23966,-0.10371 2.02982,-1.2798 2.82159,-2.07189 0.30341,-0.30341 0.51628,-0.72241 0.7359,-1.08811 0.24273,-0.40455 0.74489,-0.6338 1.12311,-0.89098 0.75612,-0.51339 1.59123,-0.96514 2.41254,-1.3668 1.15233,-0.56413 1.20659,-0.48097 2.28604,0.0392 0.84313,0.40648 1.74952,0.7192 2.66394,0.91216 1.42203,0.29957 2.91983,-0.2058 3.56679,1.32282 0.14866,-0.36152 0.0841,-0.7147 0.0652,-1.09839 m -99.839146,85.54082 c 0.01605,-0.11141 0.01605,-0.1127 0,0 m 1.345616,5.25439 c -0.06454,-0.4271 -0.125861,-0.8515 -0.169848,-1.2808 0.05362,0.2909 0.312083,1.2072 0.169848,1.2808 m 4.924291,-0.5231 c 0.175627,0.6264 1.08362,1.3723 0.875565,1.9868 -0.190075,-0.6062 -0.754842,-0.7259 -0.849558,-1.2936 -0.156363,-0.9398 -0.674253,-1.8917 -0.665584,-2.836 0.213192,0.7141 0.426706,1.4284 0.639577,2.1428 m -0.05233,1.0853 c -0.37726,0.094 -0.453355,-0.1972 -0.482572,-0.5362 0.16471,0.1794 0.334879,0.3486 0.482572,0.5362 m 1.176089,15.082 c -0.08958,1.1983 -0.313046,2.3541 -0.613891,3.5158 -2.633117,-4.2019 -4.160459,-8.9217 -3.893006,-13.9195 0.506653,0.2446 0.590132,0.7214 0.849559,1.2024 0.105632,-0.1088 0.136455,-0.092 0.05587,-0.2777 -0.216082,-0.4996 -0.137098,-0.6322 -0.173379,-1.0551 -0.06999,-0.8049 -0.382398,-1.615 -0.575362,-2.4051 0.609717,0.5554 0.765116,1.3466 1.096142,2.0908 0.461381,1.038 0.663336,0.7844 0.354143,-0.156 0.255895,0.1672 0.355748,0.5882 0.57472,0.8495 -0.03596,-0.1836 -0.401341,-0.7706 -0.319788,-0.9606 0.124255,-0.29 0.06389,-0.3982 -0.04688,-0.6948 -0.297313,-0.7947 -1.02679,-1.9868 -0.900288,-2.8666 0.675858,1.3049 0.796582,2.9375 1.737003,4.0648 -0.523348,-2.4064 -1.052797,-4.9394 -1.410472,-7.4758 0.110449,0.7333 0.513395,1.3751 0.711497,2.0844 0.165674,0.5927 0.31433,0.9751 0.352217,1.4772 0.126502,1.6802 0.699617,3.2351 1.078162,4.8681 0.722092,3.1096 1.24223,6.4594 1.123754,9.6582 m 0.169847,-15.6442 c -0.01991,-0.1712 -9.63e-4,-0.011 0,0 m 0.940422,20.0358 c -0.0732,0.01 0.0167,0 0,0 m 20.29981,3.1893 c 0.0771,0.021 0.13807,0.019 0.20902,0.065 -0.14063,-0.033 -0.28768,-0.08 -0.41803,-0.1175 0.0697,0.017 0.13934,0.035 0.20901,0.052 m 45.24909,-133.08849 c 0.15347,0.0568 0.23117,-0.002 0.30053,0.15668 -0.0999,-0.052 -0.20035,-0.10434 -0.30053,-0.15668 m 17.62175,12.59921 c -0.0857,-0.0254 -0.18301,0.12972 -0.13067,-0.0783 0.10017,0.0132 0.20035,0.026 0.30052,0.0392 -0.0568,0.0128 -0.11302,0.026 -0.16985,0.0392 m -1.85451,-10.80859 c -0.0494,0.0337 -0.0687,0.0472 0,0"
       inkscape:connector-curvature="0"
       style="clip-rule:evenodd;fill:#ffffff;fill-opacity:1;fill-rule:evenodd" />
  </g>
</svg>
